<?xml version="1.0" encoding="utf-8"?>
<!-- Generator: Adobe Illustrator 16.2.1, SVG Export Plug-In . SVG Version: 6.00 Build 0)  -->
<!DOCTYPE svg PUBLIC "-//W3C//DTD SVG 1.1//EN" "http://www.w3.org/Graphics/SVG/1.1/DTD/svg11.dtd">
<svg version="1.1" id="Ebene_1" xmlns="http://www.w3.org/2000/svg" xmlns:xlink="http://www.w3.org/1999/xlink" x="0px" y="0px"
	 width="73.674px" height="22.68px" viewBox="34.028 0 73.674 22.68" enable-background="new 34.028 0 73.674 22.68"
	 xml:space="preserve">
<path fill="#0C1C36" d="M65.848,13.704c-0.363-0.459-0.89-0.764-1.638-0.764c-1.453,0-2.602,1.149-2.602,2.743
	c0,1.593,1.149,2.742,2.602,2.742c0.741,0,1.268-0.297,1.638-0.764v0.623h1.134v-5.211h-1.134V13.704z M64.35,17.351
	c-0.978,0-1.571-0.756-1.571-1.667c0-0.912,0.593-1.668,1.571-1.668c0.934,0,1.571,0.719,1.571,1.668
	C65.921,16.632,65.284,17.351,64.35,17.351L64.35,17.351z M62.193,10.673h-6.152v1.164h2.461v6.448h1.23v-6.448h2.461V10.673z
	 M74.111,12.941c-1.607,0-2.801,1.179-2.801,2.743c0,1.563,1.194,2.742,2.801,2.742c1.608,0,2.802-1.179,2.802-2.742
	C76.913,14.119,75.72,12.941,74.111,12.941z M74.111,17.351c-0.926,0-1.631-0.682-1.631-1.667c0-0.986,0.705-1.668,1.631-1.668
	c0.927,0,1.639,0.682,1.639,1.668C75.75,16.669,75.038,17.351,74.111,17.351z M68.76,18.285h1.142v-7.612H68.76V18.285z
	 M99.186,12.941c-0.533,0-1.178,0.163-1.601,0.771v-0.638h-1.127v5.211H97.6v-2.884c0-0.89,0.615-1.379,1.35-1.379
	c0.763,0,1.207,0.489,1.207,1.364v2.898h1.143v-3.276C101.299,13.793,100.424,12.941,99.186,12.941z M80.826,12.941
	c-0.533,0-1.178,0.163-1.601,0.771v-0.638h-1.134v5.211h1.148v-2.884c0-0.89,0.615-1.379,1.35-1.379
	c0.764,0,1.208,0.489,1.208,1.364v2.898h1.142v-3.276C82.939,13.793,82.064,12.941,80.826,12.941z M107.702,15.676
	c0-1.623-1.009-2.735-2.461-2.735c-1.534,0-2.595,1.112-2.595,2.743c0,1.652,1.098,2.742,2.662,2.742
	c0.785,0,1.504-0.193,2.134-0.734l-0.704-0.704c-0.397,0.28-0.87,0.435-1.356,0.445c-0.733,0-1.4-0.393-1.549-1.327h3.847
	C107.695,15.963,107.702,15.82,107.702,15.676z M103.84,15.232c0.111-0.764,0.571-1.282,1.379-1.282
	c0.719,0,1.193,0.474,1.319,1.282H103.84z M91.182,10.532c-2.336,0-3.98,1.667-3.98,3.942c0,2.276,1.645,3.951,3.98,3.951
	c2.334,0,3.979-1.668,3.979-3.951C95.161,12.193,93.516,10.532,91.182,10.532z M91.182,17.247c-1.55,0-2.699-1.127-2.699-2.765
	s1.149-2.765,2.699-2.765c1.549,0,2.697,1.127,2.697,2.765S92.73,17.247,91.182,17.247z M85.363,16.514
	c-0.519,0.014-0.936,0.431-0.949,0.948c0,0.504,0.452,0.956,0.949,0.956c0.525,0,0.951-0.427,0.951-0.953
	C86.314,16.94,85.889,16.514,85.363,16.514z"/>
<polygon fill="#01D3FE" points="39.365,22.68 39.365,10.673 51.372,10.673 "/>
<polygon fill="#1369FE" points="44.702,10.673 34.028,10.673 34.028,0 "/>
<polygon fill="#0C1C36" points="34.028,10.673 39.365,10.673 39.365,16.01 "/>
</svg>
